<?xml version="1.0" encoding="UTF-8"?> <svg xmlns="http://www.w3.org/2000/svg" width="178" height="72" viewBox="0 0 178 72" fill="none"><g clip-path="url(#clip0_1501_1807)"><path d="M58.2039 0.5H38.7996L0 37.775V52.8625H38.7996V71.5H58.2039V37.775H19.3952L58.2039 0.5Z" fill="white"></path><path d="M66.5195 19.1375L85.9147 0.5H66.5195V19.1375Z" fill="white"></path><path d="M105.319 19.1375V0.5H85.9147V19.1375L66.5195 37.775V56.4125H85.9147V37.775L105.319 19.1375Z" fill="white"></path><path d="M105.318 37.7754L85.9141 56.4129H105.318V37.7754Z" fill="white"></path><path d="M124.87 38.3057H123.387V57.0072H124.87V38.3057Z" fill="white"></path><path d="M134.76 46.1287H135.199C135.565 46.1287 136.078 46.0829 136.408 45.7535C136.619 45.5431 136.738 45.1863 136.738 44.8569C136.738 44.4543 136.564 44.2347 136.435 44.1158C136.17 43.887 135.785 43.8779 135.465 43.8779H135.007L134.75 46.1287H134.76ZM134.274 50.2368H135.071C135.483 50.2368 136.151 50.191 136.49 49.8617C136.618 49.7427 136.829 49.4591 136.829 48.9101C136.829 48.6997 136.783 48.3886 136.573 48.169C136.261 47.8396 135.602 47.8213 135.41 47.8213H134.558L134.274 50.2368ZM133.038 42.0938H136.069C136.71 42.0938 137.562 42.1669 138.157 42.78C138.496 43.1276 138.77 43.7041 138.77 44.4818C138.77 45.1222 138.615 45.6255 138.331 46.028C138.02 46.4764 137.653 46.6868 137.333 46.7874C137.818 46.9064 138.175 47.1443 138.413 47.3822C138.853 47.8305 139.027 48.3154 139.027 48.965C139.027 50.0172 138.633 50.7034 138.258 51.0968C137.507 51.8837 136.399 52.0301 135.401 52.0301H131.875L133.038 42.0938Z" fill="white"></path><path d="M147.497 44.0243H143.806L143.531 45.9457H147.094L146.819 47.8854H143.266L142.964 50.0904H146.718L146.453 52.0301H140.152L141.535 42.0938H147.771L147.497 44.0243Z" fill="white"></path><path d="M151.086 46.6044H151.626C151.983 46.6044 152.524 46.5587 152.908 46.2476C153.293 45.9365 153.394 45.5065 153.394 45.0856C153.394 44.7745 153.32 44.372 152.936 44.1158C152.652 43.9236 152.24 43.8779 151.745 43.8779H151.416L151.086 46.6044ZM152.405 42.0938C153.311 42.0938 154.209 42.1852 154.923 42.9904C155.253 43.3472 155.601 43.9877 155.601 45.0124C155.601 45.9548 155.289 46.6959 154.822 47.19C154.41 47.6109 153.842 47.8945 153.311 47.9952L155.756 52.0301H153.201L150.912 48.1141L150.454 52.0301H148.266L149.429 42.0938H152.396H152.405Z" fill="white"></path><path d="M160.244 42.0938L159.3 50.0904H162.258L162.029 52.0209H156.883L158.055 42.0938H160.244Z" fill="white"></path><path d="M166.645 42.0938L165.482 52.0209H163.293L164.456 42.0938H166.645Z" fill="white"></path><path d="M167.598 52.0301L168.779 42.0938H170.684L175.043 48.5533L175.812 42.0938H178L176.837 52.0301H174.933L170.537 45.534L169.786 52.0301H167.598Z" fill="white"></path></g><defs><clipPath id="clip0_1501_1807"><rect width="178" height="71" fill="white" transform="translate(0 0.5)"></rect></clipPath></defs></svg> 